#N canvas 405 161 550 489 10;
#X obj 208 427 dac~;
#X obj 194 340 osc~ 440;
#X obj 163 224 mtof;
#X obj 148 52 tgl 15 0 empty empty empty 17 7 0 10 -262144 -1 -1 1
1;
#X obj 340 9 loadbang;
#X obj 151 85 metro 200;
#X obj 228 222 osc~ 300;
#X obj 191 310 +~;
#X obj 234 291 *~;
#X obj 250 63 metro 1000;
#X obj 341 119 + 40;
#X obj 248 90 metro 3000;
#X obj 263 141 + 40;
#N canvas 591 213 450 300 melody 0;
#X msg 62 89 60;
#X msg 97 90 63;
#X msg 127 89 65;
#X msg 160 91 67;
#X msg 192 91 68;
#X msg 228 91 72;
#X obj 62 26 inlet;
#X obj 103 26 inlet;
#X obj 140 27 inlet;
#X obj 181 27 inlet;
#X obj 220 27 inlet;
#X obj 256 21 inlet;
#X obj 169 150 outlet;
#X msg 264 90 75;
#X obj 300 26 inlet;
#X msg 301 90 55;
#X obj 340 28 inlet;
#X connect 0 0 12 0;
#X connect 1 0 12 0;
#X connect 2 0 12 0;
#X connect 3 0 12 0;
#X connect 4 0 12 0;
#X connect 5 0 12 0;
#X connect 6 0 0 0;
#X connect 7 0 1 0;
#X connect 8 0 2 0;
#X connect 9 0 3 0;
#X connect 10 0 4 0;
#X connect 11 0 5 0;
#X connect 13 0 12 0;
#X connect 14 0 13 0;
#X connect 15 0 12 0;
#X connect 16 0 15 0;
#X restore 149 197 pd melody;
#X obj 262 121 random 2000;
#X obj 334 90 random 1000;
#X obj 116 151 select 0 1 2 3 4 5 6 7;
#X obj 128 121 random 8;
#X obj 206 387 *~ 0.2;
#X obj 176 270 line~;
#X msg 171 247 \$1 40;
#X obj 349 179 sig~;
#X obj 262 182 sig~;
#X connect 1 0 18 0;
#X connect 2 0 20 0;
#X connect 3 0 5 0;
#X connect 3 0 9 0;
#X connect 3 0 11 0;
#X connect 4 0 3 0;
#X connect 5 0 17 0;
#X connect 6 0 8 0;
#X connect 7 0 1 0;
#X connect 8 0 7 1;
#X connect 9 0 15 0;
#X connect 10 0 21 0;
#X connect 11 0 14 0;
#X connect 12 0 22 0;
#X connect 13 0 2 0;
#X connect 14 0 12 0;
#X connect 15 0 10 0;
#X connect 16 0 13 0;
#X connect 16 1 13 1;
#X connect 16 2 13 2;
#X connect 16 3 13 3;
#X connect 16 4 13 4;
#X connect 16 5 13 5;
#X connect 16 6 13 6;
#X connect 16 7 13 7;
#X connect 17 0 16 0;
#X connect 18 0 0 0;
#X connect 18 0 0 1;
#X connect 19 0 7 0;
#X connect 20 0 19 0;
#X connect 21 0 8 1;
#X connect 22 0 6 0;
